<?xml version="1.0" encoding="utf-8"?>
<!-- Generator: Adobe Illustrator 22.1.0, SVG Export Plug-In . SVG Version: 6.00 Build 0)  -->
<svg version="1.1" id="Calque_1" xmlns="http://www.w3.org/2000/svg" xmlns:xlink="http://www.w3.org/1999/xlink" x="0px" y="0px"
	 viewBox="0 0 48 48" style="enable-background:new 0 0 48 48;" xml:space="preserve">
<g>
	<path d="M24,0C10.8,0,0,10.8,0,24c0,13.3,10.8,24,24,24c13.3,0,24-10.8,24-24C48,10.8,37.2,0,24,0L24,0z M35.1,38.1
		c-0.3,0.5-0.9,0.9-1.4,0.9c-0.3,0-0.5-0.1-0.8-0.2c-3.8-2.1-8.2-3.2-12.6-3.2c-2.6,0-5.3,0.4-7.8,1.2c-0.9,0.3-1.8-0.2-2.1-1.1
		c-0.3-0.9,0.2-2.7,1.1-3c2.8-0.9,5.8-1.3,8.7-1.3c5,0,9.9,1.3,14.2,3.6C35.2,35.3,35.5,37.3,35.1,38.1L35.1,38.1z M38.1,29
		c-0.3,0.7-1,1.7-1.7,1.7c-0.3,0-0.6-0.1-0.9-0.2c-4.8-2.5-9.9-3.7-15.3-3.7c-3,0-5.9,0.4-8.8,1.2c-1,0.3-2.1-0.3-2.4-1.3
		c-0.3-1,0.3-2.8,1.3-3.1c3.2-0.9,6.5-1.3,9.8-1.3c5.9,0,11.8,1.4,17.1,4.2C38.3,26.9,38.6,28.1,38.1,29L38.1,29z M39.4,21.8
		c-0.3,0-0.7-0.1-1-0.2c-5.7-2.8-11.8-4.3-18.2-4.3c-3.3,0-6.6,0.4-9.9,1.2c-1.2,0.3-2.4-0.4-2.7-1.6c-0.3-1.2,0.4-2.6,1.6-2.9
		c3.6-0.9,7.2-1.3,10.9-1.3c7.1,0,13.9,1.6,20.2,4.7c1.1,0.5,1.5,1.9,1,3C41,21.1,40.2,21.8,39.4,21.8L39.4,21.8z M39.4,21.8"/>
</g>
</svg>
